<svg version="1" xmlns="http://www.w3.org/2000/svg" width="933.333" height="933.333" viewBox="0 0 700.000000 700.000000"><path d="M215.9 216.7c-.6 1.6-3.7 10-6.9 18.8s-9.7 26.6-14.5 39.5c-4.7 12.9-16.2 44.2-25.5 69.5-9.3 25.3-24.8 67.5-34.4 93.9-9.7 26.3-17.6 48-17.6 48.2 0 .2 10.2.4 22.8.4h22.7l12.9-37.3c7.1-20.4 13.6-38.4 14.3-40l1.4-2.7 48.5.2 48.5.3 6.8 18.5c3.7 10.2 10 28.1 14 39.7l7.3 21.3h22.4c12.3 0 22.4-.4 22.4-.9 0-.4-4.2-12.2-9.4-26.2s-14.9-40.3-21.6-58.4c-15-40.6-37.7-102-55.7-150.8L260.6 214H217l-1.1 2.7zm34 84.6c5.8 16 13.7 38.1 17.6 48.9 4 10.9 7 20 6.7 20.3-.9.9-70.2.5-70.2-.4 0-.5 6.8-20 15.1-43.2 8.3-23.3 16.1-45.2 17.2-48.7 1.2-3.4 2.4-6.2 2.7-6.2.3 0 5.2 13.2 10.9 29.3zM385 350.4V487h58.3c33.2 0 62-.5 67.2-1 26.4-3.1 40.2-8.8 54.1-22.5 11.2-11.2 16.5-23.7 18.2-43.3 2.8-32.5-9.5-56.2-35.7-68.9-9.3-4.5-11.8-6.3-8.8-6.3 2.2 0 13-7.5 19.2-13.2 17.1-15.9 22.7-42.5 14.5-69-5.9-19-23.8-36.9-43-42.9-15.9-5-17.8-5.1-82.7-5.6l-61.3-.4v136.5zm113.3-96.8c14 3.1 22.4 9.4 27.6 20.4 2.3 4.9 2.6 6.8 2.6 16.5 0 10-.3 11.5-2.8 16.7-8.7 17.7-30.8 24.4-78.2 23.6l-18-.3-.3-39.3-.2-39.2h31c24.9 0 32.5.3 38.3 1.6zm-3.8 117.5c16.6 2.3 26.8 7.3 33.6 16.3 10 13.3 10.6 36.6 1.2 47.6s-27.9 14.4-75.3 13.8l-24.5-.3-.3-39.3-.2-39.2h28.9c15.9 0 32.4.5 36.6 1.1z"/></svg>